<?xml version="1.0" encoding="UTF-8"?> <!-- Generator: Adobe Illustrator 23.1.0, SVG Export Plug-In . SVG Version: 6.00 Build 0) --> <svg xmlns="http://www.w3.org/2000/svg" xmlns:xlink="http://www.w3.org/1999/xlink" id="Vrstva_1" x="0px" y="0px" width="30px" height="30px" viewBox="0 0 30 30" style="enable-background:new 0 0 30 30;" xml:space="preserve"> <style type="text/css"> .st0{fill:#00346E;} .st1{fill:#636467;} .st2{fill:#404042;} .st3{fill:#003F83;} .st4{fill:#004997;} .st5{fill:#AD0E16;} .st6{fill:#C60B1B;} .st7{fill:#DB0720;} .st8{fill:url(#SVGID_1_);} .st9{clip-path:url(#SVGID_3_);fill:#FBBC0C;} .st10{clip-path:url(#SVGID_5_);fill:#E84436;} .st11{clip-path:url(#SVGID_7_);fill:#32A853;} .st12{clip-path:url(#SVGID_9_);fill:#517CBE;} .st13{fill:url(#f_1_);} .st14{fill:#CC1417;} </style> <g> <path class="st0" d="M16.3,26.2c2.3-2.3,7.8-7.8,8.7-10.3c-0.3-0.4-1.4-1.2-2.8-1.2l-14.5,0c-1.4,0-2.4,0.8-2.8,1.2 c0.9,2.5,6.4,8.1,8.7,10.3L16.3,26.2z"></path> <path class="st1" d="M16.3,27.5h-2.6c0,0,0,0,0,0v-0.1c0,0,0,0,0,0h2.6c0,0,0,0,0,0L16.3,27.5C16.3,27.5,16.3,27.5,16.3,27.5z M15,29h0.8l0.4-1.5H15V29z"></path> <polygon class="st2" points="16.2,27.5 13.9,27.5 14.3,29 15,29 15,27.5 16.2,27.5 "></polygon> <path class="st3" d="M14.4,26.2h-0.7c0,0-3.5-5.1-5.5-10c-0.2-0.5-0.3-1-0.5-1.5c0,0,1.4-1.4,4-1.2h6.5c2.7-0.2,4,1.2,4,1.2 c-0.1,0.5-0.3,1-0.5,1.5c-2,4.9-5.5,10-5.5,10h-0.7H14.4z"></path> <path class="st4" d="M18.2,13.5c-0.1-0.1-1.1-0.6-3.2-0.7c-1.9,0-3.1,0.6-3.2,0.7c0.1,4.1,0.8,8.7,2.6,12.7h1.2 C17.4,22.2,18.1,17.6,18.2,13.5z"></path> <path class="st5" d="M21.2,2.9c0.4,0,2.1,0.9,3.4,3.2c0.4,0.6,0.6,1.3,0.8,1.9c-0.3-0.5-1.4-1.7-3.4-1.5H7.9c-2-0.2-3,1.1-3.4,1.5 C4.7,7.4,5,6.8,5.4,6.2c1.3-2.3,3-3.2,3.4-3.2H21.2z"></path> <path class="st6" d="M17.4,1.6c0,0,2.2-0.4,3.9,1.3c0,0,0.5,1.6,0.8,3.6c-0.1-0.1-1.5-1.5-4.2-1.1h-5.8C9.4,5,8.1,6.4,7.9,6.6 c0.4-2.1,0.8-3.6,0.8-3.6c1.7-1.7,3.9-1.3,3.9-1.3H17.4z"></path> <path class="st7" d="M17.9,5.5c-0.3-2.2-0.5-3.9-0.5-3.9C16.6,1,15.3,1,15,1c-0.3,0-1.6,0-2.4,0.6c0,0-0.3,1.7-0.5,3.9 c0.4-0.4,1.8-0.8,2.9-0.8C16.2,4.7,17.5,5.1,17.9,5.5z"></path> <linearGradient id="SVGID_1_" gradientUnits="userSpaceOnUse" x1="4.0968" y1="10.2668" x2="25.9032" y2="10.2668"> <stop offset="0" style="stop-color:#F2F2F2"></stop> <stop offset="6.033510e-02" style="stop-color:#F8F8F8"></stop> <stop offset="0.1913" style="stop-color:#FDFDFD"></stop> <stop offset="0.5" style="stop-color:#FFFFFF"></stop> <stop offset="0.8087" style="stop-color:#FDFDFD"></stop> <stop offset="0.9397" style="stop-color:#F8F8F8"></stop> <stop offset="1" style="stop-color:#F2F2F2"></stop> </linearGradient> <path class="st8" d="M4.5,8.1c0.3-0.5,1.4-1.7,3.4-1.5C8.1,6.4,9.4,5,12.1,5.5l0,0h0v0c0.4-0.4,1.8-0.8,2.9-0.8 c1.1,0,2.5,0.4,2.9,0.8c2.7-0.5,4,0.9,4.2,1.1c2-0.2,3,1.1,3.4,1.5c0.9,3.1,0.2,6.2-0.4,7.7c0,0,0,0,0,0.1 c-0.3-0.4-1.4-1.2-2.8-1.2c0,0-1.4-1.4-4-1.2c-0.1-0.1-1.1-0.6-3.2-0.7c-1.9,0-3.1,0.6-3.2,0.7c-2.7-0.2-4,1.2-4,1.2 c-1.4,0-2.4,0.8-2.8,1.2c0,0,0,0,0-0.1C4.4,14.3,3.6,11.2,4.5,8.1z"></path> <path class="st4" d="M9.2,9.5C9.2,9.5,9.2,9.5,9.2,9.5c0-0.3-0.1-0.5-0.3-0.6C8.7,8.7,8.4,8.7,8,8.8C7.6,8.9,7.2,9.1,6.9,9.2 c0.1,1,0.1,2,0.2,3C7.3,12.1,7.4,12,7.7,12c0-0.4,0-0.6,0-1c0.1-0.1,0.2-0.1,0.4-0.1c0.2,0.3,0.4,0.5,0.6,0.8 c0.3-0.1,0.4-0.1,0.7-0.2c-0.2-0.3-0.5-0.6-0.7-0.9C9,10.3,9.2,9.9,9.2,9.5z M8.5,9.7C8.5,9.7,8.5,9.7,8.5,9.7 c0,0.3-0.2,0.5-0.5,0.6c-0.2,0.1-0.3,0.1-0.4,0.2c0-0.3,0-0.5,0-0.9C7.7,9.5,7.8,9.5,8,9.4C8.3,9.3,8.5,9.4,8.5,9.7z M18.7,7.9 c-0.4,1-0.8,1.9-1.2,2.9c0.3,0,0.4,0,0.7,0.1c0.1-0.2,0.1-0.4,0.2-0.6c0.4,0.1,0.6,0.1,1,0.2c0.1,0.3,0.1,0.4,0.2,0.7 c0.3,0.1,0.4,0.1,0.7,0.2c-0.3-1.1-0.7-2.2-1-3.3C19.1,8,19,8,18.7,7.9z M19.3,9.8c-0.3,0-0.4-0.1-0.6-0.1c0.1-0.3,0.2-0.5,0.3-0.9 C19.1,9.2,19.2,9.4,19.3,9.8z M23.3,12.2c-0.3-0.1-0.4-0.2-0.7-0.3c-0.2-0.4-0.3-0.8-0.5-1.2c-0.2,0.3-0.4,0.5-0.6,0.8 c-0.3-0.1-0.4-0.1-0.7-0.2c0.3-0.4,0.6-0.8,1-1.3c-0.3-0.6-0.5-1.1-0.8-1.7c0.3,0.1,0.5,0.1,0.8,0.2C21.8,9,22,9.3,22.1,9.7 c0.2-0.3,0.3-0.5,0.6-0.8C23,9,23.1,9.1,23.4,9.2c-0.3,0.4-0.6,0.8-0.9,1.1C22.7,11,23,11.6,23.3,12.2z M11.6,10.4 c-0.1,0.3-0.2,0.4-0.3,0.6c-0.4,0.1-0.8,0.2-1.2,0.3c0-1-0.1-2-0.1-3c0.7-0.2,1.4-0.3,2-0.4c0,0.2,0,0.3,0,0.6 c-0.5,0.1-0.9,0.1-1.4,0.2c0,0.2,0,0.4,0,0.6c0.4-0.1,0.8-0.2,1.2-0.2c0,0.2,0,0.3,0,0.6c-0.4,0.1-0.8,0.1-1.2,0.2 c0,0.3,0,0.4,0,0.6C11,10.4,11.2,10.4,11.6,10.4z M17,7.7c0,1,0,2,0,3c-0.3,0-0.4,0-0.7,0c0-0.6,0-1.2,0-1.9 c-0.2,0.3-0.5,0.6-0.7,0.9c0,0,0,0,0,0c0,0,0,0,0,0c-0.2-0.3-0.5-0.6-0.7-0.9c0,0.6,0,1.2,0,1.9c-0.3,0-0.4,0-0.7,0 c0-0.6,0-1.1,0-1.7c0.2-0.4,0.5-0.9,0.7-1.3c0,0,0,0,0,0c0.2,0.3,0.5,0.6,0.7,1c0.2-0.3,0.5-0.6,0.7-0.9C16.6,7.7,16.8,7.7,17,7.7z "></path> <path class="st7" d="M12.7,10.8c0.5-1.1,1-2.1,1.6-3.1c-0.3,0-0.5,0-0.8,0c-0.5,1.1-1,2.1-1.6,3.2C12.2,10.8,12.4,10.8,12.7,10.8z"></path> </g> </svg> 