<?xml version="1.0" encoding="UTF-8"?> <!-- Generator: Adobe Illustrator 23.1.0, SVG Export Plug-In . SVG Version: 6.00 Build 0) --> <svg xmlns="http://www.w3.org/2000/svg" xmlns:xlink="http://www.w3.org/1999/xlink" id="Vrstva_1" x="0px" y="0px" width="30px" height="30px" viewBox="0 0 30 30" style="enable-background:new 0 0 30 30;" xml:space="preserve"> <style type="text/css"> .st0{fill:#00346E;} .st1{fill:#636467;} .st2{fill:#404042;} .st3{fill:#003F83;} .st4{fill:#004997;} .st5{fill:#AD0E16;} .st6{fill:#C60B1B;} .st7{fill:#DB0720;} .st8{fill:url(#SVGID_1_);} .st9{clip-path:url(#SVGID_3_);fill:#FBBC0C;} .st10{clip-path:url(#SVGID_5_);fill:#E84436;} .st11{clip-path:url(#SVGID_7_);fill:#32A853;} .st12{clip-path:url(#SVGID_9_);fill:#517CBE;} .st13{fill:url(#f_1_);} .st14{fill:#CC1417;} </style> <g> <path id="Fill-7" class="st14" d="M27.7,4.1c-0.3-0.7-1-1.3-1.7-1.7C23.5,1,20.7,1,17.9,1c-2,0-4,0.1-5.9,0.5 C10.8,1.6,9.8,1.8,8.7,2c-1.3,0.2-2.6,0.6-3.8,1c-1.2,0.3-2.2,1-3.3,1.6C1.2,5,0.6,5.4,0.3,5.9c-0.2,0.7,0,1.3,0,2 c0.1,1,0.5,1.3,0.9,2c0.9,1.4,2.4,1.9,4,1.2c0.5-0.1,1.4-0.8,1.7-0.7c0.6,0.2,0.1,2.1,0,2.6c-0.2,0.7-0.5,1.2-1,1.4 c-0.5,0.2-1.5,0.1-1.7,0.8c-0.5,2,1.5,3.4,1.7,5.1C6,21,5.7,22,5.6,22.8c-0.1,1.2-0.2,2.2-0.2,3.4c0,0.6-0.2,1.3-0.1,1.7 c0.1,0.8,0.9,1.3,1.6,1c1-0.5,1.5-1.7,2-2.7c0.6-1.4,0.8-2.7,1.2-4.2c0.2-0.9,0.5-2,1.5-2.1c1.4-0.1,2.8-0.6,4.2-0.7 c1.5-0.1,3-0.2,4.5-0.6c1-0.2,2-0.1,3-0.3c1.6-0.2,3.7-0.9,5.1-1.9c0.7-0.5,1-1.5,1.3-2.3c0.8-2.1-4.4-1.7-5.2-1.7 c-2.2,0-4.3,0-6.3,0.2c-1.4,0.1-2.8,0.2-4.2,0.2c-0.6,0-1.5,0-2-0.6c-0.6-0.8-0.2-2.3,0-3.1c0.3-0.9,1.7-0.7,2.6-0.7 c1.3-0.1,2.4-0.2,3.7-0.3c2.7-0.1,5.2-0.2,7.8-0.7c0.7-0.1,1.9-0.3,2-1.2C28.3,5.5,28,4.8,27.7,4.1"></path> </g> </svg> 